<svg width="424" height="498" viewBox="0 0 424 498" fill="none" xmlns="http://www.w3.org/2000/svg">
<g filter="url(#filter0_d_1_768)">
<path d="M60 80C60 63.4315 73.4315 50 90 50H334C350.569 50 364 63.4315 364 80V398C364 414.569 350.569 428 334 428H90C73.4315 428 60 414.569 60 398V80Z" fill="white"/>
</g>
<path d="M106.646 98.154C105.209 98.154 103.889 97.8167 102.686 97.142C101.483 96.4673 100.53 95.536 99.826 94.348C99.122 93.1453 98.77 91.7887 98.77 90.278C98.77 88.782 99.122 87.44 99.826 86.252C100.53 85.0493 101.483 84.1107 102.686 83.436C103.889 82.7613 105.209 82.424 106.646 82.424C108.098 82.424 109.418 82.7613 110.606 83.436C111.809 84.1107 112.755 85.0493 113.444 86.252C114.148 87.44 114.5 88.782 114.5 90.278C114.5 91.7887 114.148 93.1453 113.444 94.348C112.755 95.536 111.809 96.4673 110.606 97.142C109.403 97.8167 108.083 98.154 106.646 98.154ZM106.646 95.404C107.57 95.404 108.384 95.1987 109.088 94.788C109.792 94.3627 110.342 93.7613 110.738 92.984C111.134 92.2067 111.332 91.3047 111.332 90.278C111.332 89.2513 111.134 88.3567 110.738 87.594C110.342 86.8167 109.792 86.2227 109.088 85.812C108.384 85.4013 107.57 85.196 106.646 85.196C105.722 85.196 104.901 85.4013 104.182 85.812C103.478 86.2227 102.928 86.8167 102.532 87.594C102.136 88.3567 101.938 89.2513 101.938 90.278C101.938 91.3047 102.136 92.2067 102.532 92.984C102.928 93.7613 103.478 94.3627 104.182 94.788C104.901 95.1987 105.722 95.404 106.646 95.404ZM117.187 82.644H120.421L118.045 88.188H115.933L117.187 82.644ZM121.618 91.884C121.618 90.6667 121.867 89.5887 122.366 88.65C122.879 87.6967 123.569 86.956 124.434 86.428C125.299 85.9 126.253 85.636 127.294 85.636C128.159 85.636 128.922 85.8047 129.582 86.142C130.257 86.4647 130.799 86.8827 131.21 87.396V85.812H134.312V103.808H131.21V96.328C130.799 96.856 130.249 97.296 129.56 97.648C128.871 98 128.093 98.176 127.228 98.176C126.201 98.176 125.255 97.912 124.39 97.384C123.539 96.8413 122.865 96.0933 122.366 95.14C121.867 94.1867 121.618 93.1013 121.618 91.884ZM131.21 91.906C131.21 91.158 131.056 90.5127 130.748 89.97C130.44 89.4273 130.037 89.0167 129.538 88.738C129.054 88.4593 128.533 88.32 127.976 88.32C127.433 88.32 126.913 88.4593 126.414 88.738C125.93 89.0167 125.534 89.4273 125.226 89.97C124.918 90.498 124.764 91.136 124.764 91.884C124.764 92.632 124.918 93.2847 125.226 93.842C125.534 94.3847 125.93 94.7953 126.414 95.074C126.913 95.3527 127.433 95.492 127.976 95.492C128.533 95.492 129.054 95.3527 129.538 95.074C130.037 94.7953 130.44 94.3847 130.748 93.842C131.056 93.2993 131.21 92.654 131.21 91.906ZM148.606 85.812V98H145.504V96.46C145.108 96.988 144.588 97.406 143.942 97.714C143.312 98.0073 142.622 98.154 141.874 98.154C140.921 98.154 140.078 97.956 139.344 97.56C138.611 97.1493 138.032 96.5553 137.606 95.778C137.196 94.986 136.99 94.0473 136.99 92.962V85.812H140.07V92.522C140.07 93.49 140.312 94.238 140.796 94.766C141.28 95.2793 141.94 95.536 142.776 95.536C143.627 95.536 144.294 95.2793 144.778 94.766C145.262 94.238 145.504 93.49 145.504 92.522V85.812H148.606ZM156.507 95.162L159.587 85.812H162.865L158.355 98H154.615L150.127 85.812H153.427L156.507 95.162ZM163.583 91.906C163.583 90.6447 163.84 89.5447 164.353 88.606C164.866 87.6527 165.578 86.9193 166.487 86.406C167.396 85.878 168.438 85.614 169.611 85.614C171.122 85.614 172.368 85.9953 173.351 86.758C174.348 87.506 175.016 88.562 175.353 89.926H172.031C171.855 89.398 171.554 88.9873 171.129 88.694C170.718 88.386 170.205 88.232 169.589 88.232C168.709 88.232 168.012 88.5547 167.499 89.2C166.986 89.8307 166.729 90.7327 166.729 91.906C166.729 93.0647 166.986 93.9667 167.499 94.612C168.012 95.2427 168.709 95.558 169.589 95.558C170.836 95.558 171.65 95.0007 172.031 93.886H175.353C175.016 95.206 174.348 96.2547 173.351 97.032C172.354 97.8093 171.107 98.198 169.611 98.198C168.438 98.198 167.396 97.9413 166.487 97.428C165.578 96.9 164.866 96.1667 164.353 95.228C163.84 94.2747 163.583 93.1673 163.583 91.906ZM184.253 85.636C185.177 85.636 185.999 85.8413 186.717 86.252C187.436 86.648 187.993 87.242 188.389 88.034C188.8 88.8113 189.005 89.75 189.005 90.85V98H185.925V91.268C185.925 90.3 185.683 89.5593 185.199 89.046C184.715 88.518 184.055 88.254 183.219 88.254C182.369 88.254 181.694 88.518 181.195 89.046C180.711 89.5593 180.469 90.3 180.469 91.268V98H177.389V81.72H180.469V87.33C180.865 86.802 181.393 86.3913 182.053 86.098C182.713 85.79 183.447 85.636 184.253 85.636ZM193.276 84.36C192.734 84.36 192.279 84.1913 191.912 83.854C191.56 83.502 191.384 83.0693 191.384 82.556C191.384 82.0427 191.56 81.6173 191.912 81.28C192.279 80.928 192.734 80.752 193.276 80.752C193.819 80.752 194.266 80.928 194.618 81.28C194.985 81.6173 195.168 82.0427 195.168 82.556C195.168 83.0693 194.985 83.502 194.618 83.854C194.266 84.1913 193.819 84.36 193.276 84.36ZM194.794 85.812V98H191.714V85.812H194.794ZM200.697 81.72V98H197.617V81.72H200.697ZM202.728 91.862C202.728 90.63 202.97 89.5373 203.454 88.584C203.953 87.6307 204.62 86.8973 205.456 86.384C206.307 85.8707 207.253 85.614 208.294 85.614C209.204 85.614 209.996 85.7973 210.67 86.164C211.36 86.5307 211.91 86.9927 212.32 87.55V85.812H215.422V98H212.32V96.218C211.924 96.79 211.374 97.2667 210.67 97.648C209.981 98.0147 209.182 98.198 208.272 98.198C207.246 98.198 206.307 97.934 205.456 97.406C204.62 96.878 203.953 96.1373 203.454 95.184C202.97 94.216 202.728 93.1087 202.728 91.862ZM212.32 91.906C212.32 91.158 212.174 90.52 211.88 89.992C211.587 89.4493 211.191 89.0387 210.692 88.76C210.194 88.4667 209.658 88.32 209.086 88.32C208.514 88.32 207.986 88.4593 207.502 88.738C207.018 89.0167 206.622 89.4273 206.314 89.97C206.021 90.498 205.874 91.1287 205.874 91.862C205.874 92.5953 206.021 93.2407 206.314 93.798C206.622 94.3407 207.018 94.7587 207.502 95.052C208.001 95.3453 208.529 95.492 209.086 95.492C209.658 95.492 210.194 95.3527 210.692 95.074C211.191 94.7807 211.587 94.37 211.88 93.842C212.174 93.2993 212.32 92.654 212.32 91.906ZM221.291 87.704C221.687 87.0587 222.2 86.5527 222.831 86.186C223.476 85.8193 224.209 85.636 225.031 85.636V88.87H224.217C223.249 88.87 222.515 89.0973 222.017 89.552C221.533 90.0067 221.291 90.7987 221.291 91.928V98H218.211V85.812H221.291V87.704Z" fill="black"/>
<path d="M106.47 119.07C106.199 118.501 105.807 118.062 105.294 117.754C104.781 117.437 104.183 117.278 103.502 117.278C102.821 117.278 102.205 117.437 101.654 117.754C101.113 118.062 100.683 118.51 100.366 119.098C100.058 119.677 99.904 120.349 99.904 121.114C99.904 121.879 100.058 122.551 100.366 123.13C100.683 123.709 101.113 124.157 101.654 124.474C102.205 124.782 102.821 124.936 103.502 124.936C104.454 124.936 105.238 124.651 105.854 124.082C106.47 123.513 106.829 122.743 106.932 121.772H103.04V120.736H108.29V121.716C108.215 122.519 107.963 123.256 107.534 123.928C107.105 124.591 106.54 125.118 105.84 125.51C105.14 125.893 104.361 126.084 103.502 126.084C102.597 126.084 101.771 125.874 101.024 125.454C100.277 125.025 99.6847 124.432 99.246 123.676C98.8167 122.92 98.602 122.066 98.602 121.114C98.602 120.162 98.8167 119.308 99.246 118.552C99.6847 117.787 100.277 117.194 101.024 116.774C101.771 116.345 102.597 116.13 103.502 116.13C104.538 116.13 105.453 116.387 106.246 116.9C107.049 117.413 107.632 118.137 107.996 119.07H106.47ZM116.638 118.328V126H115.364V124.866C115.122 125.258 114.781 125.566 114.342 125.79C113.913 126.005 113.437 126.112 112.914 126.112C112.317 126.112 111.78 125.991 111.304 125.748C110.828 125.496 110.45 125.123 110.17 124.628C109.9 124.133 109.764 123.531 109.764 122.822V118.328H111.024V122.654C111.024 123.41 111.216 123.993 111.598 124.404C111.981 124.805 112.504 125.006 113.166 125.006C113.848 125.006 114.384 124.796 114.776 124.376C115.168 123.956 115.364 123.345 115.364 122.542V118.328H116.638ZM119.924 119.574C120.148 119.135 120.465 118.795 120.876 118.552C121.296 118.309 121.804 118.188 122.402 118.188V119.504H122.066C120.638 119.504 119.924 120.279 119.924 121.828V126H118.65V118.328H119.924V119.574ZM130.536 118.328V126H129.262V124.866C129.02 125.258 128.679 125.566 128.24 125.79C127.811 126.005 127.335 126.112 126.812 126.112C126.215 126.112 125.678 125.991 125.202 125.748C124.726 125.496 124.348 125.123 124.068 124.628C123.798 124.133 123.662 123.531 123.662 122.822V118.328H124.922V122.654C124.922 123.41 125.114 123.993 125.496 124.404C125.879 124.805 126.402 125.006 127.064 125.006C127.746 125.006 128.282 124.796 128.674 124.376C129.066 123.956 129.262 123.345 129.262 122.542V118.328H130.536ZM136.355 118.188C136.934 118.188 137.457 118.314 137.923 118.566C138.39 118.809 138.754 119.177 139.015 119.672C139.286 120.167 139.421 120.769 139.421 121.478V126H138.161V121.66C138.161 120.895 137.97 120.311 137.587 119.91C137.205 119.499 136.682 119.294 136.019 119.294C135.347 119.294 134.811 119.504 134.409 119.924C134.017 120.344 133.821 120.955 133.821 121.758V126H132.547V115.64H133.821V119.42C134.073 119.028 134.419 118.725 134.857 118.51C135.305 118.295 135.805 118.188 136.355 118.188ZM140.886 122.136C140.886 121.352 141.045 120.666 141.362 120.078C141.68 119.481 142.114 119.019 142.664 118.692C143.224 118.365 143.85 118.202 144.54 118.202C145.138 118.202 145.693 118.342 146.206 118.622C146.72 118.893 147.112 119.252 147.382 119.7V115.64H148.67V126H147.382V124.558C147.13 125.015 146.757 125.393 146.262 125.692C145.768 125.981 145.189 126.126 144.526 126.126C143.845 126.126 143.224 125.958 142.664 125.622C142.114 125.286 141.68 124.815 141.362 124.208C141.045 123.601 140.886 122.911 140.886 122.136ZM147.382 122.15C147.382 121.571 147.266 121.067 147.032 120.638C146.799 120.209 146.482 119.882 146.08 119.658C145.688 119.425 145.254 119.308 144.778 119.308C144.302 119.308 143.868 119.42 143.476 119.644C143.084 119.868 142.772 120.195 142.538 120.624C142.305 121.053 142.188 121.557 142.188 122.136C142.188 122.724 142.305 123.237 142.538 123.676C142.772 124.105 143.084 124.437 143.476 124.67C143.868 124.894 144.302 125.006 144.778 125.006C145.254 125.006 145.688 124.894 146.08 124.67C146.482 124.437 146.799 124.105 147.032 123.676C147.266 123.237 147.382 122.729 147.382 122.15ZM150.207 122.136C150.207 121.352 150.366 120.666 150.683 120.078C151.001 119.481 151.435 119.019 151.985 118.692C152.545 118.365 153.166 118.202 153.847 118.202C154.519 118.202 155.103 118.347 155.597 118.636C156.092 118.925 156.461 119.289 156.703 119.728V118.328H157.991V126H156.703V124.572C156.451 125.02 156.073 125.393 155.569 125.692C155.075 125.981 154.496 126.126 153.833 126.126C153.152 126.126 152.536 125.958 151.985 125.622C151.435 125.286 151.001 124.815 150.683 124.208C150.366 123.601 150.207 122.911 150.207 122.136ZM156.703 122.15C156.703 121.571 156.587 121.067 156.353 120.638C156.12 120.209 155.803 119.882 155.401 119.658C155.009 119.425 154.575 119.308 154.099 119.308C153.623 119.308 153.189 119.42 152.797 119.644C152.405 119.868 152.093 120.195 151.859 120.624C151.626 121.053 151.509 121.557 151.509 122.136C151.509 122.724 151.626 123.237 151.859 123.676C152.093 124.105 152.405 124.437 152.797 124.67C153.189 124.894 153.623 125.006 154.099 125.006C154.575 125.006 155.009 124.894 155.401 124.67C155.803 124.437 156.12 124.105 156.353 123.676C156.587 123.237 156.703 122.729 156.703 122.15ZM163.168 118.202C163.831 118.202 164.41 118.347 164.904 118.636C165.408 118.925 165.782 119.289 166.024 119.728V118.328H167.312V126.168C167.312 126.868 167.163 127.489 166.864 128.03C166.566 128.581 166.136 129.01 165.576 129.318C165.026 129.626 164.382 129.78 163.644 129.78C162.636 129.78 161.796 129.542 161.124 129.066C160.452 128.59 160.056 127.941 159.934 127.12H161.194C161.334 127.587 161.624 127.96 162.062 128.24C162.501 128.529 163.028 128.674 163.644 128.674C164.344 128.674 164.914 128.455 165.352 128.016C165.8 127.577 166.024 126.961 166.024 126.168V124.558C165.772 125.006 165.399 125.379 164.904 125.678C164.41 125.977 163.831 126.126 163.168 126.126C162.487 126.126 161.866 125.958 161.306 125.622C160.756 125.286 160.322 124.815 160.004 124.208C159.687 123.601 159.528 122.911 159.528 122.136C159.528 121.352 159.687 120.666 160.004 120.078C160.322 119.481 160.756 119.019 161.306 118.692C161.866 118.365 162.487 118.202 163.168 118.202ZM166.024 122.15C166.024 121.571 165.908 121.067 165.674 120.638C165.441 120.209 165.124 119.882 164.722 119.658C164.33 119.425 163.896 119.308 163.42 119.308C162.944 119.308 162.51 119.42 162.118 119.644C161.726 119.868 161.414 120.195 161.18 120.624C160.947 121.053 160.83 121.557 160.83 122.136C160.83 122.724 160.947 123.237 161.18 123.676C161.414 124.105 161.726 124.437 162.118 124.67C162.51 124.894 162.944 125.006 163.42 125.006C163.896 125.006 164.33 124.894 164.722 124.67C165.124 124.437 165.441 124.105 165.674 123.676C165.908 123.237 166.024 122.729 166.024 122.15ZM169.983 117.082C169.741 117.082 169.535 116.998 169.367 116.83C169.199 116.662 169.115 116.457 169.115 116.214C169.115 115.971 169.199 115.766 169.367 115.598C169.535 115.43 169.741 115.346 169.983 115.346C170.217 115.346 170.413 115.43 170.571 115.598C170.739 115.766 170.823 115.971 170.823 116.214C170.823 116.457 170.739 116.662 170.571 116.83C170.413 116.998 170.217 117.082 169.983 117.082ZM170.599 118.328V126H169.325V118.328H170.599ZM179.569 126.126C178.85 126.126 178.197 125.963 177.609 125.636C177.03 125.309 176.573 124.847 176.237 124.25C175.91 123.643 175.747 122.943 175.747 122.15C175.747 121.366 175.915 120.675 176.251 120.078C176.596 119.471 177.063 119.009 177.651 118.692C178.239 118.365 178.897 118.202 179.625 118.202C180.353 118.202 181.011 118.365 181.599 118.692C182.187 119.009 182.649 119.467 182.985 120.064C183.33 120.661 183.503 121.357 183.503 122.15C183.503 122.943 183.326 123.643 182.971 124.25C182.626 124.847 182.154 125.309 181.557 125.636C180.96 125.963 180.297 126.126 179.569 126.126ZM179.569 125.006C180.026 125.006 180.456 124.899 180.857 124.684C181.258 124.469 181.58 124.147 181.823 123.718C182.075 123.289 182.201 122.766 182.201 122.15C182.201 121.534 182.08 121.011 181.837 120.582C181.594 120.153 181.277 119.835 180.885 119.63C180.493 119.415 180.068 119.308 179.611 119.308C179.144 119.308 178.715 119.415 178.323 119.63C177.94 119.835 177.632 120.153 177.399 120.582C177.166 121.011 177.049 121.534 177.049 122.15C177.049 122.775 177.161 123.303 177.385 123.732C177.618 124.161 177.926 124.483 178.309 124.698C178.692 124.903 179.112 125.006 179.569 125.006ZM185.234 116.242H186.648L185.304 119.42H184.408L185.234 116.242ZM187.484 122.136C187.484 121.352 187.643 120.666 187.96 120.078C188.278 119.481 188.712 119.019 189.262 118.692C189.822 118.365 190.448 118.202 191.138 118.202C191.801 118.202 192.38 118.351 192.875 118.65C193.379 118.939 193.747 119.299 193.981 119.728V118.328H195.269V129.64H193.981V124.586C193.738 125.015 193.365 125.379 192.86 125.678C192.357 125.977 191.769 126.126 191.097 126.126C190.424 126.126 189.813 125.958 189.262 125.622C188.712 125.286 188.278 124.815 187.96 124.208C187.643 123.601 187.484 122.911 187.484 122.136ZM193.981 122.15C193.981 121.571 193.864 121.067 193.631 120.638C193.397 120.209 193.08 119.882 192.679 119.658C192.286 119.425 191.852 119.308 191.376 119.308C190.9 119.308 190.466 119.42 190.074 119.644C189.682 119.868 189.37 120.195 189.136 120.624C188.903 121.053 188.786 121.557 188.786 122.136C188.786 122.724 188.903 123.237 189.136 123.676C189.37 124.105 189.682 124.437 190.074 124.67C190.466 124.894 190.9 125.006 191.376 125.006C191.852 125.006 192.286 124.894 192.679 124.67C193.08 124.437 193.397 124.105 193.631 123.676C193.864 123.237 193.981 122.729 193.981 122.15ZM204.085 118.328V126H202.811V124.866C202.569 125.258 202.228 125.566 201.789 125.79C201.36 126.005 200.884 126.112 200.361 126.112C199.764 126.112 199.227 125.991 198.751 125.748C198.275 125.496 197.897 125.123 197.617 124.628C197.347 124.133 197.211 123.531 197.211 122.822V118.328H198.471V122.654C198.471 123.41 198.663 123.993 199.045 124.404C199.428 124.805 199.951 125.006 200.613 125.006C201.295 125.006 201.831 124.796 202.223 124.376C202.615 123.956 202.811 123.345 202.811 122.542V118.328H204.085ZM205.621 122.15C205.621 121.357 205.779 120.666 206.097 120.078C206.414 119.481 206.853 119.019 207.413 118.692C207.982 118.365 208.631 118.202 209.359 118.202C210.301 118.202 211.076 118.431 211.683 118.888C212.299 119.345 212.705 119.98 212.901 120.792H211.529C211.398 120.325 211.141 119.957 210.759 119.686C210.385 119.415 209.919 119.28 209.359 119.28C208.631 119.28 208.043 119.532 207.595 120.036C207.147 120.531 206.923 121.235 206.923 122.15C206.923 123.074 207.147 123.788 207.595 124.292C208.043 124.796 208.631 125.048 209.359 125.048C209.919 125.048 210.385 124.917 210.759 124.656C211.132 124.395 211.389 124.021 211.529 123.536H212.901C212.695 124.32 212.285 124.95 211.669 125.426C211.053 125.893 210.283 126.126 209.359 126.126C208.631 126.126 207.982 125.963 207.413 125.636C206.853 125.309 206.414 124.847 206.097 124.25C205.779 123.653 205.621 122.953 205.621 122.15ZM218.268 118.188C218.847 118.188 219.37 118.314 219.836 118.566C220.303 118.809 220.667 119.177 220.928 119.672C221.199 120.167 221.334 120.769 221.334 121.478V126H220.074V121.66C220.074 120.895 219.883 120.311 219.5 119.91C219.118 119.499 218.595 119.294 217.932 119.294C217.26 119.294 216.724 119.504 216.322 119.924C215.93 120.344 215.734 120.955 215.734 121.758V126H214.46V115.64H215.734V119.42C215.986 119.028 216.332 118.725 216.77 118.51C217.218 118.295 217.718 118.188 218.268 118.188ZM223.934 117.082C223.691 117.082 223.486 116.998 223.318 116.83C223.15 116.662 223.066 116.457 223.066 116.214C223.066 115.971 223.15 115.766 223.318 115.598C223.486 115.43 223.691 115.346 223.934 115.346C224.167 115.346 224.363 115.43 224.522 115.598C224.69 115.766 224.774 115.971 224.774 116.214C224.774 116.457 224.69 116.662 224.522 116.83C224.363 116.998 224.167 117.082 223.934 117.082ZM224.55 118.328V126H223.276V118.328H224.55ZM227.855 115.64V126H226.581V115.64H227.855ZM229.41 122.136C229.41 121.352 229.569 120.666 229.886 120.078C230.203 119.481 230.637 119.019 231.188 118.692C231.748 118.365 232.369 118.202 233.05 118.202C233.722 118.202 234.305 118.347 234.8 118.636C235.295 118.925 235.663 119.289 235.906 119.728V118.328H237.194V126H235.906V124.572C235.654 125.02 235.276 125.393 234.772 125.692C234.277 125.981 233.699 126.126 233.036 126.126C232.355 126.126 231.739 125.958 231.188 125.622C230.637 125.286 230.203 124.815 229.886 124.208C229.569 123.601 229.41 122.911 229.41 122.136ZM235.906 122.15C235.906 121.571 235.789 121.067 235.556 120.638C235.323 120.209 235.005 119.882 234.604 119.658C234.212 119.425 233.778 119.308 233.302 119.308C232.826 119.308 232.392 119.42 232 119.644C231.608 119.868 231.295 120.195 231.062 120.624C230.829 121.053 230.712 121.557 230.712 122.136C230.712 122.724 230.829 123.237 231.062 123.676C231.295 124.105 231.608 124.437 232 124.67C232.392 124.894 232.826 125.006 233.302 125.006C233.778 125.006 234.212 124.894 234.604 124.67C235.005 124.437 235.323 124.105 235.556 123.676C235.789 123.237 235.906 122.729 235.906 122.15ZM240.481 119.574C240.705 119.135 241.022 118.795 241.433 118.552C241.853 118.309 242.362 118.188 242.959 118.188V119.504H242.623C241.195 119.504 240.481 120.279 240.481 121.828V126H239.207V118.328H240.481V119.574ZM251.046 118.202C251.709 118.202 252.287 118.347 252.782 118.636C253.286 118.925 253.659 119.289 253.902 119.728V118.328H255.19V126.168C255.19 126.868 255.041 127.489 254.742 128.03C254.443 128.581 254.014 129.01 253.454 129.318C252.903 129.626 252.259 129.78 251.522 129.78C250.514 129.78 249.674 129.542 249.002 129.066C248.33 128.59 247.933 127.941 247.812 127.12H249.072C249.212 127.587 249.501 127.96 249.94 128.24C250.379 128.529 250.906 128.674 251.522 128.674C252.222 128.674 252.791 128.455 253.23 128.016C253.678 127.577 253.902 126.961 253.902 126.168V124.558C253.65 125.006 253.277 125.379 252.782 125.678C252.287 125.977 251.709 126.126 251.046 126.126C250.365 126.126 249.744 125.958 249.184 125.622C248.633 125.286 248.199 124.815 247.882 124.208C247.565 123.601 247.406 122.911 247.406 122.136C247.406 121.352 247.565 120.666 247.882 120.078C248.199 119.481 248.633 119.019 249.184 118.692C249.744 118.365 250.365 118.202 251.046 118.202ZM253.902 122.15C253.902 121.571 253.785 121.067 253.552 120.638C253.319 120.209 253.001 119.882 252.6 119.658C252.208 119.425 251.774 119.308 251.298 119.308C250.822 119.308 250.388 119.42 249.996 119.644C249.604 119.868 249.291 120.195 249.058 120.624C248.825 121.053 248.708 121.557 248.708 122.136C248.708 122.724 248.825 123.237 249.058 123.676C249.291 124.105 249.604 124.437 249.996 124.67C250.388 124.894 250.822 125.006 251.298 125.006C251.774 125.006 252.208 124.894 252.6 124.67C253.001 124.437 253.319 124.105 253.552 123.676C253.785 123.237 253.902 122.729 253.902 122.15ZM264.007 118.328V126H262.733V124.866C262.49 125.258 262.15 125.566 261.711 125.79C261.282 126.005 260.806 126.112 260.283 126.112C259.686 126.112 259.149 125.991 258.673 125.748C258.197 125.496 257.819 125.123 257.539 124.628C257.268 124.133 257.133 123.531 257.133 122.822V118.328H258.393V122.654C258.393 123.41 258.584 123.993 258.967 124.404C259.35 124.805 259.872 125.006 260.535 125.006C261.216 125.006 261.753 124.796 262.145 124.376C262.537 123.956 262.733 123.345 262.733 122.542V118.328H264.007ZM267.292 119.574C267.516 119.135 267.833 118.795 268.244 118.552C268.664 118.309 269.173 118.188 269.77 118.188V119.504H269.434C268.006 119.504 267.292 120.279 267.292 121.828V126H266.018V118.328H267.292V119.574ZM277.905 118.328V126H276.631V124.866C276.388 125.258 276.047 125.566 275.609 125.79C275.179 126.005 274.703 126.112 274.181 126.112C273.583 126.112 273.047 125.991 272.571 125.748C272.095 125.496 271.717 125.123 271.437 124.628C271.166 124.133 271.031 123.531 271.031 122.822V118.328H272.291V122.654C272.291 123.41 272.482 123.993 272.865 124.404C273.247 124.805 273.77 125.006 274.433 125.006C275.114 125.006 275.651 124.796 276.043 124.376C276.435 123.956 276.631 123.345 276.631 122.542V118.328H277.905ZM283.724 118.188C284.303 118.188 284.825 118.314 285.292 118.566C285.759 118.809 286.123 119.177 286.384 119.672C286.655 120.167 286.79 120.769 286.79 121.478V126H285.53V121.66C285.53 120.895 285.339 120.311 284.956 119.91C284.573 119.499 284.051 119.294 283.388 119.294C282.716 119.294 282.179 119.504 281.778 119.924C281.386 120.344 281.19 120.955 281.19 121.758V126H279.916V115.64H281.19V119.42C281.442 119.028 281.787 118.725 282.226 118.51C282.674 118.295 283.173 118.188 283.724 118.188ZM289.389 117.082C289.146 117.082 288.941 116.998 288.773 116.83C288.605 116.662 288.521 116.457 288.521 116.214C288.521 115.971 288.605 115.766 288.773 115.598C288.941 115.43 289.146 115.346 289.389 115.346C289.622 115.346 289.818 115.43 289.977 115.598C290.145 115.766 290.229 115.971 290.229 116.214C290.229 116.457 290.145 116.662 289.977 116.83C289.818 116.998 289.622 117.082 289.389 117.082ZM290.005 118.328V126H288.731V118.328H290.005Z" fill="#ACACAC"/>
<g filter="url(#filter1_d_1_768)">
<circle cx="212.5" cy="270.5" r="114.5" fill="white"/>
</g>
<circle cx="212.5" cy="270.5" r="74.5" stroke="#F1EFFB" stroke-width="20"/>
<path d="M212.5 180C227.598 180 242.456 183.777 255.721 190.988C268.986 198.198 280.236 208.613 288.447 221.283C296.658 233.953 301.568 248.476 302.731 263.529C303.894 278.582 301.272 293.687 295.105 307.468C288.938 321.249 279.421 333.268 267.421 342.43C255.421 351.593 241.319 357.607 226.4 359.926C211.481 362.245 196.219 360.795 182.004 355.707C167.789 350.62 155.073 342.057 145.014 330.798L168.621 309.705C175.162 317.025 183.43 322.593 192.672 325.901C201.915 329.208 211.838 330.151 221.538 328.644C231.238 327.136 240.406 323.225 248.209 317.268C256.011 311.311 262.199 303.496 266.209 294.536C270.219 285.576 271.923 275.755 271.167 265.968C270.411 256.18 267.218 246.738 261.88 238.5C256.541 230.262 249.226 223.49 240.602 218.802C231.977 214.114 222.317 211.658 212.5 211.658L212.5 180Z" fill="url(#paint0_linear_1_768)"/>
<path d="M212.5 173C231.651 173 250.307 179.075 265.786 190.351C281.265 201.627 292.768 217.522 298.641 235.75L259.701 248.295C256.483 238.306 250.18 229.597 241.698 223.418C233.217 217.239 222.994 213.911 212.5 213.911V173Z" fill="url(#paint1_linear_1_768)"/>
<path d="M196.753 256.333C196.626 255.747 196.405 255.312 196.088 255.026C195.771 254.725 195.319 254.575 194.733 254.575C193.83 254.575 193.181 254.971 192.784 255.763C192.388 256.539 192.182 257.775 192.167 259.47C192.515 258.916 193.014 258.48 193.664 258.163C194.329 257.846 195.058 257.688 195.85 257.688C197.403 257.688 198.646 258.179 199.581 259.161C200.532 260.144 201.007 261.514 201.007 263.273C201.007 264.429 200.769 265.443 200.294 266.315C199.835 267.186 199.153 267.867 198.25 268.358C197.363 268.849 196.31 269.095 195.09 269.095C192.65 269.095 190.955 268.335 190.004 266.814C189.053 265.277 188.578 263.075 188.578 260.207C188.578 257.197 189.077 254.963 190.075 253.505C191.089 252.032 192.705 251.295 194.923 251.295C196.112 251.295 197.11 251.533 197.918 252.008C198.742 252.468 199.359 253.078 199.771 253.838C200.199 254.599 200.453 255.43 200.532 256.333H196.753ZM194.876 260.896C194.195 260.896 193.624 261.102 193.165 261.514C192.721 261.91 192.499 262.481 192.499 263.225C192.499 263.986 192.705 264.58 193.117 265.008C193.545 265.435 194.147 265.649 194.923 265.649C195.62 265.649 196.167 265.443 196.563 265.031C196.975 264.604 197.181 264.025 197.181 263.296C197.181 262.552 196.983 261.966 196.587 261.538C196.191 261.11 195.62 260.896 194.876 260.896ZM215.283 255.193H207.868V258.472C208.185 258.124 208.629 257.839 209.199 257.617C209.77 257.395 210.387 257.284 211.053 257.284C212.241 257.284 213.223 257.553 214 258.092C214.792 258.631 215.37 259.328 215.735 260.183C216.099 261.039 216.281 261.966 216.281 262.964C216.281 264.817 215.758 266.291 214.713 267.384C213.667 268.461 212.194 269 210.292 269C209.025 269 207.924 268.786 206.989 268.358C206.054 267.915 205.333 267.305 204.827 266.528C204.32 265.752 204.042 264.857 203.995 263.843H207.963C208.059 264.334 208.288 264.746 208.653 265.079C209.017 265.396 209.516 265.554 210.15 265.554C210.894 265.554 211.449 265.316 211.813 264.841C212.178 264.366 212.36 263.732 212.36 262.94C212.36 262.164 212.17 261.57 211.79 261.158C211.409 260.746 210.855 260.54 210.126 260.54C209.587 260.54 209.144 260.674 208.795 260.944C208.447 261.197 208.217 261.538 208.106 261.966H204.185V251.628H215.283V255.193ZM217.954 256.024C217.954 254.741 218.318 253.751 219.047 253.054C219.792 252.357 220.75 252.008 221.923 252.008C223.095 252.008 224.046 252.357 224.774 253.054C225.503 253.751 225.868 254.741 225.868 256.024C225.868 257.308 225.503 258.298 224.774 258.995C224.046 259.692 223.095 260.041 221.923 260.041C220.75 260.041 219.792 259.692 219.047 258.995C218.318 258.298 217.954 257.308 217.954 256.024ZM234.09 252.27L224.941 269H221.02L230.169 252.27H234.09ZM221.899 254.385C221.138 254.385 220.758 254.931 220.758 256.024C220.758 257.102 221.138 257.64 221.899 257.64C222.263 257.64 222.548 257.506 222.754 257.236C222.96 256.967 223.063 256.563 223.063 256.024C223.063 254.931 222.675 254.385 221.899 254.385ZM229.266 265.245C229.266 263.962 229.63 262.972 230.359 262.275C231.088 261.577 232.038 261.229 233.211 261.229C234.383 261.229 235.334 261.577 236.063 262.275C236.791 262.972 237.156 263.962 237.156 265.245C237.156 266.528 236.791 267.519 236.063 268.216C235.334 268.913 234.383 269.261 233.211 269.261C232.038 269.261 231.088 268.913 230.359 268.216C229.63 267.519 229.266 266.528 229.266 265.245ZM233.187 263.605C232.823 263.605 232.538 263.74 232.332 264.009C232.141 264.279 232.046 264.691 232.046 265.245C232.046 266.323 232.427 266.861 233.187 266.861C233.551 266.861 233.837 266.727 234.043 266.457C234.249 266.188 234.352 265.784 234.352 265.245C234.352 264.707 234.249 264.303 234.043 264.033C233.837 263.748 233.551 263.605 233.187 263.605ZM189.908 273.718V278.958C189.908 279.695 190.086 280.241 190.443 280.598C190.807 280.954 191.31 281.133 191.952 281.133C192.586 281.133 193.081 280.954 193.437 280.598C193.802 280.241 193.984 279.695 193.984 278.958V273.718H195.065V278.946C195.065 279.635 194.927 280.218 194.649 280.693C194.372 281.16 193.996 281.509 193.52 281.739C193.053 281.968 192.526 282.083 191.94 282.083C191.354 282.083 190.823 281.968 190.348 281.739C189.881 281.509 189.508 281.16 189.231 280.693C188.962 280.218 188.827 279.635 188.827 278.946V273.718H189.908ZM204.581 275.37C205.088 275.37 205.539 275.477 205.935 275.69C206.331 275.896 206.644 276.209 206.874 276.629C207.104 277.049 207.219 277.56 207.219 278.162V282H206.149V278.316C206.149 277.667 205.987 277.172 205.662 276.831C205.345 276.483 204.913 276.308 204.367 276.308C203.804 276.308 203.357 276.491 203.024 276.855C202.691 277.211 202.525 277.73 202.525 278.412V282H201.456V278.316C201.456 277.667 201.293 277.172 200.968 276.831C200.652 276.483 200.22 276.308 199.673 276.308C199.111 276.308 198.663 276.491 198.331 276.855C197.998 277.211 197.831 277.73 197.831 278.412V282H196.75V275.488H197.831V276.427C198.045 276.087 198.331 275.825 198.687 275.643C199.051 275.461 199.451 275.37 199.887 275.37C200.434 275.37 200.917 275.492 201.337 275.738C201.757 275.984 202.07 276.344 202.275 276.819C202.458 276.36 202.759 276.003 203.179 275.75C203.598 275.496 204.066 275.37 204.581 275.37ZM214.648 275.488V282H213.567V281.038C213.361 281.37 213.072 281.632 212.7 281.822C212.335 282.004 211.931 282.095 211.488 282.095C210.981 282.095 210.525 281.992 210.121 281.786C209.717 281.572 209.396 281.255 209.159 280.836C208.929 280.416 208.814 279.905 208.814 279.303V275.488H209.883V279.16C209.883 279.802 210.046 280.297 210.371 280.645C210.695 280.986 211.139 281.156 211.701 281.156C212.28 281.156 212.735 280.978 213.068 280.622C213.401 280.265 213.567 279.746 213.567 279.065V275.488H214.648ZM224.186 275.37C224.693 275.37 225.144 275.477 225.54 275.69C225.936 275.896 226.249 276.209 226.479 276.629C226.709 277.049 226.823 277.56 226.823 278.162V282H225.754V278.316C225.754 277.667 225.592 277.172 225.267 276.831C224.95 276.483 224.518 276.308 223.972 276.308C223.409 276.308 222.962 276.491 222.629 276.855C222.296 277.211 222.13 277.73 222.13 278.412V282H221.061V278.316C221.061 277.667 220.898 277.172 220.573 276.831C220.256 276.483 219.825 276.308 219.278 276.308C218.716 276.308 218.268 276.491 217.935 276.855C217.603 277.211 217.436 277.73 217.436 278.412V282H216.355V275.488H217.436V276.427C217.65 276.087 217.935 275.825 218.292 275.643C218.656 275.461 219.056 275.37 219.492 275.37C220.039 275.37 220.522 275.492 220.942 275.738C221.362 275.984 221.674 276.344 221.88 276.819C222.063 276.36 222.364 276.003 222.783 275.75C223.203 275.496 223.671 275.37 224.186 275.37ZM229.037 274.431C228.831 274.431 228.657 274.36 228.514 274.217C228.371 274.074 228.3 273.9 228.3 273.694C228.3 273.488 228.371 273.314 228.514 273.171C228.657 273.029 228.831 272.958 229.037 272.958C229.235 272.958 229.401 273.029 229.536 273.171C229.678 273.314 229.75 273.488 229.75 273.694C229.75 273.9 229.678 274.074 229.536 274.217C229.401 274.36 229.235 274.431 229.037 274.431ZM229.56 275.488V282H228.478V275.488H229.56ZM236.892 275.488L232.971 285.066H231.854L233.137 281.929L230.511 275.488H231.711L233.755 280.764L235.775 275.488H236.892ZM184.084 295.083C183.315 295.083 182.614 294.905 181.981 294.548C181.347 294.184 180.844 293.681 180.471 293.039C180.107 292.39 179.925 291.661 179.925 290.853C179.925 290.045 180.107 289.32 180.471 288.679C180.844 288.029 181.347 287.526 181.981 287.17C182.614 286.805 183.315 286.623 184.084 286.623C184.86 286.623 185.565 286.805 186.199 287.17C186.832 287.526 187.332 288.025 187.696 288.667C188.06 289.308 188.243 290.037 188.243 290.853C188.243 291.669 188.06 292.398 187.696 293.039C187.332 293.681 186.832 294.184 186.199 294.548C185.565 294.905 184.86 295.083 184.084 295.083ZM184.084 294.144C184.662 294.144 185.181 294.01 185.64 293.74C186.108 293.471 186.472 293.087 186.733 292.588C187.003 292.089 187.137 291.511 187.137 290.853C187.137 290.188 187.003 289.609 186.733 289.118C186.472 288.619 186.112 288.235 185.652 287.966C185.193 287.696 184.67 287.562 184.084 287.562C183.497 287.562 182.975 287.696 182.515 287.966C182.056 288.235 181.691 288.619 181.422 289.118C181.161 289.609 181.03 290.188 181.03 290.853C181.03 291.511 181.161 292.089 181.422 292.588C181.691 293.087 182.056 293.471 182.515 293.74C182.983 294.01 183.505 294.144 184.084 294.144ZM189.717 286.718H190.918L189.777 289.415H189.016L189.717 286.718ZM191.628 291.72C191.628 291.055 191.762 290.473 192.032 289.974C192.301 289.467 192.669 289.075 193.137 288.797C193.612 288.52 194.143 288.382 194.729 288.382C195.291 288.382 195.782 288.508 196.202 288.762C196.63 289.007 196.943 289.312 197.141 289.677V288.488H198.234V298.089H197.141V293.8C196.935 294.164 196.618 294.473 196.19 294.727C195.763 294.98 195.264 295.107 194.693 295.107C194.123 295.107 193.604 294.964 193.137 294.679C192.669 294.394 192.301 293.994 192.032 293.479C191.762 292.964 191.628 292.378 191.628 291.72ZM197.141 291.732C197.141 291.241 197.042 290.813 196.844 290.449C196.646 290.085 196.377 289.807 196.036 289.617C195.703 289.419 195.335 289.32 194.931 289.32C194.527 289.32 194.159 289.415 193.826 289.605C193.493 289.796 193.228 290.073 193.03 290.437C192.832 290.802 192.733 291.229 192.733 291.72C192.733 292.22 192.832 292.655 193.03 293.028C193.228 293.392 193.493 293.673 193.826 293.871C194.159 294.061 194.527 294.156 194.931 294.156C195.335 294.156 195.703 294.061 196.036 293.871C196.377 293.673 196.646 293.392 196.844 293.028C197.042 292.655 197.141 292.223 197.141 291.732ZM205.717 288.488V295H204.636V294.038C204.43 294.37 204.141 294.632 203.769 294.822C203.404 295.004 203 295.095 202.557 295.095C202.05 295.095 201.594 294.992 201.19 294.786C200.786 294.572 200.465 294.255 200.228 293.836C199.998 293.416 199.883 292.905 199.883 292.303V288.488H200.953V292.16C200.953 292.802 201.115 293.297 201.44 293.645C201.765 293.986 202.208 294.156 202.771 294.156C203.349 294.156 203.804 293.978 204.137 293.622C204.47 293.265 204.636 292.746 204.636 292.065V288.488H205.717ZM209.848 294.002L211.868 288.488H213.021L210.466 295H209.207L206.652 288.488H207.816L209.848 294.002ZM213.562 291.732C213.562 291.059 213.697 290.473 213.966 289.974C214.235 289.467 214.608 289.075 215.083 288.797C215.566 288.52 216.117 288.382 216.735 288.382C217.535 288.382 218.192 288.576 218.707 288.964C219.23 289.352 219.575 289.891 219.741 290.58H218.576C218.466 290.184 218.248 289.871 217.923 289.641C217.606 289.411 217.21 289.296 216.735 289.296C216.117 289.296 215.618 289.51 215.238 289.938C214.857 290.358 214.667 290.956 214.667 291.732C214.667 292.517 214.857 293.123 215.238 293.55C215.618 293.978 216.117 294.192 216.735 294.192C217.21 294.192 217.606 294.081 217.923 293.859C218.24 293.637 218.458 293.321 218.576 292.909H219.741C219.567 293.574 219.218 294.109 218.695 294.513C218.172 294.909 217.519 295.107 216.735 295.107C216.117 295.107 215.566 294.968 215.083 294.691C214.608 294.414 214.235 294.022 213.966 293.515C213.697 293.008 213.562 292.414 213.562 291.732ZM224.297 288.37C224.788 288.37 225.232 288.477 225.628 288.69C226.024 288.896 226.333 289.209 226.555 289.629C226.784 290.049 226.899 290.56 226.899 291.162V295H225.83V291.316C225.83 290.667 225.667 290.172 225.343 289.831C225.018 289.483 224.574 289.308 224.012 289.308C223.441 289.308 222.986 289.487 222.645 289.843C222.313 290.2 222.146 290.718 222.146 291.4V295H221.065V286.207H222.146V289.415C222.36 289.083 222.653 288.825 223.025 288.643C223.406 288.461 223.83 288.37 224.297 288.37ZM229.105 287.431C228.899 287.431 228.725 287.36 228.582 287.217C228.44 287.074 228.368 286.9 228.368 286.694C228.368 286.488 228.44 286.314 228.582 286.171C228.725 286.029 228.899 285.958 229.105 285.958C229.303 285.958 229.469 286.029 229.604 286.171C229.747 286.314 229.818 286.488 229.818 286.694C229.818 286.9 229.747 287.074 229.604 287.217C229.469 287.36 229.303 287.431 229.105 287.431ZM229.628 288.488V295H228.547V288.488H229.628ZM232.433 286.207V295H231.352V286.207H232.433ZM233.753 291.72C233.753 291.055 233.888 290.473 234.157 289.974C234.427 289.467 234.795 289.075 235.262 288.797C235.738 288.52 236.264 288.382 236.843 288.382C237.413 288.382 237.908 288.504 238.328 288.75C238.748 288.995 239.061 289.304 239.267 289.677V288.488H240.36V295H239.267V293.788C239.053 294.168 238.732 294.485 238.304 294.739C237.884 294.984 237.393 295.107 236.831 295.107C236.253 295.107 235.73 294.964 235.262 294.679C234.795 294.394 234.427 293.994 234.157 293.479C233.888 292.964 233.753 292.378 233.753 291.72ZM239.267 291.732C239.267 291.241 239.168 290.813 238.97 290.449C238.772 290.085 238.502 289.807 238.162 289.617C237.829 289.419 237.461 289.32 237.057 289.32C236.653 289.32 236.284 289.415 235.952 289.605C235.619 289.796 235.353 290.073 235.155 290.437C234.957 290.802 234.858 291.229 234.858 291.72C234.858 292.22 234.957 292.655 235.155 293.028C235.353 293.392 235.619 293.673 235.952 293.871C236.284 294.061 236.653 294.156 237.057 294.156C237.461 294.156 237.829 294.061 238.162 293.871C238.502 293.673 238.772 293.392 238.97 293.028C239.168 292.655 239.267 292.223 239.267 291.732ZM243.15 289.546C243.34 289.174 243.609 288.885 243.958 288.679C244.314 288.473 244.746 288.37 245.253 288.37V289.487H244.968C243.756 289.487 243.15 290.144 243.15 291.459V295H242.068V288.488H243.15V289.546Z" fill="black"/>
<defs>
<filter id="filter0_d_1_768" x="0" y="0" width="424" height="498" filterUnits="userSpaceOnUse" color-interpolation-filters="sRGB">
<feFlood flood-opacity="0" result="BackgroundImageFix"/>
<feColorMatrix in="SourceAlpha" type="matrix" values="0 0 0 0 0 0 0 0 0 0 0 0 0 0 0 0 0 0 127 0" result="hardAlpha"/>
<feOffset dy="10"/>
<feGaussianBlur stdDeviation="30"/>
<feComposite in2="hardAlpha" operator="out"/>
<feColorMatrix type="matrix" values="0 0 0 0 0.885625 0 0 0 0 0.92625 0 0 0 0 0.975 0 0 0 0.5 0"/>
<feBlend mode="normal" in2="BackgroundImageFix" result="effect1_dropShadow_1_768"/>
<feBlend mode="normal" in="SourceGraphic" in2="effect1_dropShadow_1_768" result="shape"/>
</filter>
<filter id="filter1_d_1_768" x="38" y="106" width="349" height="349" filterUnits="userSpaceOnUse" color-interpolation-filters="sRGB">
<feFlood flood-opacity="0" result="BackgroundImageFix"/>
<feColorMatrix in="SourceAlpha" type="matrix" values="0 0 0 0 0 0 0 0 0 0 0 0 0 0 0 0 0 0 127 0" result="hardAlpha"/>
<feOffset dy="10"/>
<feGaussianBlur stdDeviation="30"/>
<feComposite in2="hardAlpha" operator="out"/>
<feColorMatrix type="matrix" values="0 0 0 0 0.885625 0 0 0 0 0.92625 0 0 0 0 0.975 0 0 0 0.5 0"/>
<feBlend mode="normal" in2="BackgroundImageFix" result="effect1_dropShadow_1_768"/>
<feBlend mode="normal" in="SourceGraphic" in2="effect1_dropShadow_1_768" result="shape"/>
</filter>
<linearGradient id="paint0_linear_1_768" x1="169.784" y1="86.7782" x2="360.211" y2="148.317" gradientUnits="userSpaceOnUse">
<stop stop-color="#EAABF0"/>
<stop offset="1" stop-color="#4623E9"/>
</linearGradient>
<linearGradient id="paint1_linear_1_768" x1="282.638" y1="173" x2="212.5" y2="354" gradientUnits="userSpaceOnUse">
<stop stop-color="#FF007A"/>
<stop offset="1" stop-color="#CDF4FF"/>
</linearGradient>
</defs>
</svg>
