<svg width="37" height="37" viewBox="0 0 45 45" fill="none" xmlns="http://www.w3.org/2000/svg">
<g filter="url(#filter0_d_1_1165)">
<path d="M22.5002 34.8876C21.4673 34.8876 20.419 34.6564 19.6019 34.1784L11.1228 29.2914C7.66945 26.9634 7.45361 26.6089 7.45361 22.9551V14.0443C7.45361 10.3905 7.65403 10.0359 11.0457 7.73887L19.5865 2.80553C21.2052 1.86512 23.749 1.86512 25.3677 2.80553L33.8777 7.70803C37.3311 10.0359 37.5469 10.3905 37.5469 14.0443V22.9397C37.5469 26.5934 37.3465 26.948 33.9548 29.2451L25.414 34.1784C24.5815 34.6564 23.5331 34.8876 22.5002 34.8876ZM22.5002 4.42428C21.8527 4.42428 21.2207 4.54762 20.7736 4.8097L12.2944 9.7122C9.78153 11.408 9.78153 11.408 9.78153 14.0443V22.9397C9.78153 25.5759 9.78153 25.5759 12.3561 27.318L20.7736 32.1743C21.6832 32.6984 23.3327 32.6984 24.2423 32.1743L32.7215 27.2718C35.219 25.5759 35.219 25.5759 35.219 22.9397V14.0443C35.219 11.408 35.219 11.408 32.6444 9.66595L24.2269 4.8097C23.7798 4.54762 23.1477 4.42428 22.5002 4.42428Z" fill="black"/>
<path d="M22.5 24.2812C19.3088 24.2812 16.7188 21.6912 16.7188 18.5C16.7188 15.3088 19.3088 12.7188 22.5 12.7188C25.6912 12.7188 28.2812 15.3088 28.2812 18.5C28.2812 21.6912 25.6912 24.2812 22.5 24.2812ZM22.5 15.0312C20.5883 15.0312 19.0312 16.5883 19.0312 18.5C19.0312 20.4117 20.5883 21.9688 22.5 21.9688C24.4117 21.9688 25.9688 20.4117 25.9688 18.5C25.9688 16.5883 24.4117 15.0312 22.5 15.0312Z" fill="black"/>
</g>
<defs>
<filter id="filter0_d_1_1165" x="0" y="0" width="45" height="45" filterUnits="userSpaceOnUse" color-interpolation-filters="sRGB">
<feFlood flood-opacity="0" result="BackgroundImageFix"/>
<feColorMatrix in="SourceAlpha" type="matrix" values="0 0 0 0 0 0 0 0 0 0 0 0 0 0 0 0 0 0 127 0" result="hardAlpha"/>
<feOffset dy="4"/>
<feGaussianBlur stdDeviation="2"/>
<feComposite in2="hardAlpha" operator="out"/>
<feColorMatrix type="matrix" values="0 0 0 0 0 0 0 0 0 0 0 0 0 0 0 0 0 0 0.25 0"/>
<feBlend mode="normal" in2="BackgroundImageFix" result="effect1_dropShadow_1_1165"/>
<feBlend mode="normal" in="SourceGraphic" in2="effect1_dropShadow_1_1165" result="shape"/>
</filter>
</defs>
</svg>
