<svg width="26" height="30" viewBox="0 0 26 30" fill="none" xmlns="http://www.w3.org/2000/svg">
<g filter="url(#filter0_d_1_608)">
<path d="M11.1265 4.0605C10.7827 5.52842 10.7359 7.05027 10.989 8.53653C11.242 10.0228 11.7898 11.4434 12.6 12.7149C13.4102 13.9863 14.4665 15.0828 15.7068 15.94C16.9471 16.7971 18.3462 17.3976 19.822 17.706C19.0461 18.5088 18.1169 19.1475 17.0894 19.5843C16.0619 20.021 14.9572 20.2469 13.8408 20.2485C13.7373 20.2485 13.6323 20.2522 13.5273 20.2485C11.5835 20.18 9.72523 19.4328 8.27516 18.1366C6.82509 16.8405 5.87491 15.0773 5.58967 13.1534C5.30444 11.2295 5.70219 9.26648 6.71381 7.60536C7.72544 5.94423 9.28702 4.68998 11.1273 4.0605M12.235 2.25C12.191 2.25015 12.1471 2.25416 12.1038 2.262C9.71623 2.68689 7.57028 3.98001 6.07908 5.8924C4.58789 7.80478 3.85689 10.2012 4.02681 12.6203C4.19674 15.0394 5.25558 17.3101 6.99948 18.9952C8.74337 20.6804 11.049 21.6608 13.4725 21.7477C13.5955 21.7523 13.7185 21.7477 13.84 21.7477C15.4142 21.7488 16.9655 21.3707 18.3627 20.6455C19.76 19.9204 20.962 18.8694 21.8673 17.5815C21.9406 17.4705 21.9834 17.3421 21.9914 17.2093C21.9994 17.0765 21.9722 16.944 21.9127 16.825C21.8532 16.706 21.7633 16.6048 21.6523 16.5316C21.5412 16.4583 21.4128 16.4156 21.28 16.4078C19.7817 16.2763 18.3337 15.802 17.0479 15.0216C15.7621 14.2413 14.673 13.1757 13.8647 11.9073C13.0564 10.6389 12.5506 9.20159 12.3863 7.70652C12.2221 6.21145 12.4038 4.69863 12.9175 3.285C12.9612 3.17185 12.9772 3.04989 12.9643 2.92929C12.9513 2.80869 12.9097 2.69294 12.8429 2.59168C12.7761 2.49041 12.6861 2.40657 12.5804 2.34714C12.4746 2.28771 12.3562 2.2544 12.235 2.25Z" fill="#7E7E7E"/>
</g>
<defs>
<filter id="filter0_d_1_608" x="-3" y="0" width="32" height="32" filterUnits="userSpaceOnUse" color-interpolation-filters="sRGB">
<feFlood flood-opacity="0" result="BackgroundImageFix"/>
<feColorMatrix in="SourceAlpha" type="matrix" values="0 0 0 0 0 0 0 0 0 0 0 0 0 0 0 0 0 0 127 0" result="hardAlpha"/>
<feOffset dy="4"/>
<feGaussianBlur stdDeviation="2"/>
<feComposite in2="hardAlpha" operator="out"/>
<feColorMatrix type="matrix" values="0 0 0 0 0 0 0 0 0 0 0 0 0 0 0 0 0 0 0.25 0"/>
<feBlend mode="normal" in2="BackgroundImageFix" result="effect1_dropShadow_1_608"/>
<feBlend mode="normal" in="SourceGraphic" in2="effect1_dropShadow_1_608" result="shape"/>
</filter>
</defs>
</svg>
